<?xml version="1.0" encoding="UTF-8"?><svg id="Layer_2" xmlns="http://www.w3.org/2000/svg" xmlns:xlink="http://www.w3.org/1999/xlink" viewBox="0 0 157.02 46.96"><defs><style>.cls-1{fill:url(#linear-gradient);}.cls-1,.cls-2,.cls-3,.cls-4,.cls-5,.cls-6,.cls-7,.cls-8,.cls-9,.cls-10{stroke-width:0px;}.cls-2{fill:url(#radial-gradient-8);}.cls-3{fill:url(#linear-gradient-2);}.cls-4{fill:url(#radial-gradient-2);}.cls-5{fill:url(#radial-gradient-7);}.cls-6{fill:url(#radial-gradient-5);}.cls-7{fill:url(#radial-gradient);}.cls-8{fill:url(#radial-gradient-6);}.cls-9{fill:url(#radial-gradient-3);}.cls-10{fill:url(#radial-gradient-4);}</style><linearGradient id="linear-gradient" x1="20.65" y1="28.94" x2="52.22" y2="56.94" gradientUnits="userSpaceOnUse"><stop offset=".02" stop-color="#329338"/><stop offset=".17" stop-color="#2b8431"/><stop offset=".46" stop-color="#226f27"/><stop offset=".74" stop-color="#1c6221"/><stop offset="1" stop-color="#1b5e20"/></linearGradient><linearGradient id="linear-gradient-2" x1="0" y1="23.46" x2="41.78" y2="23.46" gradientUnits="userSpaceOnUse"><stop offset="0" stop-color="#1b5e20"/><stop offset="1" stop-color="#1b5e20"/></linearGradient><radialGradient id="radial-gradient" cx="11.13" cy="7.65" fx="11.13" fy="7.65" r="23.92" gradientTransform="translate(18.86 -4.16) rotate(85.21) scale(1 1.13)" gradientUnits="userSpaceOnUse"><stop offset="0" stop-color="#329338"/><stop offset=".19" stop-color="#29802f"/><stop offset=".45" stop-color="#216d26"/><stop offset=".72" stop-color="#1c6121"/><stop offset="1" stop-color="#1b5e20"/></radialGradient><radialGradient id="radial-gradient-2" cx="155.2" cy="32.88" fx="155.2" fy="32.88" r="103.64" gradientTransform="matrix(1,0,0,1,0,0)" xlink:href="#radial-gradient"/><radialGradient id="radial-gradient-3" cx="155.2" cy="32.88" fx="155.2" fy="32.88" r="103.64" gradientTransform="matrix(1,0,0,1,0,0)" xlink:href="#radial-gradient"/><radialGradient id="radial-gradient-4" cx="155.2" cy="32.88" fx="155.2" fy="32.88" r="103.64" gradientTransform="matrix(1,0,0,1,0,0)" xlink:href="#radial-gradient"/><radialGradient id="radial-gradient-5" cx="155.2" cy="32.88" fx="155.2" fy="32.88" r="103.64" gradientTransform="matrix(1,0,0,1,0,0)" xlink:href="#radial-gradient"/><radialGradient id="radial-gradient-6" cx="155.2" cy="32.88" fx="155.2" fy="32.88" r="103.64" gradientTransform="matrix(1,0,0,1,0,0)" xlink:href="#radial-gradient"/><radialGradient id="radial-gradient-7" cx="155.2" cy="32.88" fx="155.2" fy="32.88" r="103.64" gradientTransform="matrix(1,0,0,1,0,0)" xlink:href="#radial-gradient"/><radialGradient id="radial-gradient-8" cx="155.2" cy="32.88" fx="155.2" fy="32.88" r="103.64" gradientTransform="matrix(1,0,0,1,0,0)" xlink:href="#radial-gradient"/></defs><g id="Layer_1-2"><polygon class="cls-1" points="39.87 36.89 30.54 38.04 29.8 46.96 22.56 39.71 32.62 29.65 39.87 36.89"/><path class="cls-3" d="M38.22,3.55c-4.74-4.74-12.42-4.74-17.16,0-.06.06-.12.12-.18.18-.06-.06-.12-.12-.18-.18C15.97-1.18,8.29-1.18,3.55,3.55-1.18,8.29-1.18,15.97,3.55,20.71l3.86,3.86,5.79-5.79c-1.81-2.19-2.82-4.29-3.13-6.14l5.91-5.91c2.38.38,5.17,1.9,7.88,4.61,2.52,2.52,4.05,5.27,4.5,7.66l-6.09,6.09c-1.71-.34-3.64-1.29-5.65-2.92L1.94,36.88l9.32,1.16.74,8.89,8.88-8.88s15.43-15.43,17.34-17.33c4.74-4.74,4.74-12.42,0-17.16ZM15.26,6.39l-5.55,5.55c-.64.64-1.69.64-2.33,0h0c-.64-.64-.64-1.69,0-2.33l5.55-5.55c.64-.64,1.69-.64,2.33,0h0c.64.64.64,1.69,0,2.33ZM31.19,22.24l-5.55,5.55c-.64.64-1.69.64-2.33,0h0c-.64-.64-.64-1.69,0-2.33l5.55-5.55c.64-.64,1.69-.64,2.33,0h0c.64.64.64,1.69,0,2.33Z"/><path class="cls-7" d="M37.56,4.31C33.17-.08,26.07-.08,21.68,4.31c-.25.25-.52.52-.8.8-.28-.28-.55-.55-.8-.8C15.71-.08,8.6-.08,4.22,4.31-.16,8.69-.16,15.8,4.22,20.18l3.79,3.79,5.19-5.19c-1.81-2.19-2.82-4.29-3.13-6.14l5.91-5.91c2.38.38,5.17,1.9,7.88,4.61,2.52,2.52,4.05,5.27,4.5,7.66l-6.09,6.09c-1.71-.34-3.64-1.29-5.65-2.92l-5.21,5.21c3.83,3.83,7.92,7.92,9.47,9.47,0,0,13.58-13.58,16.66-16.67,4.38-4.38,4.38-11.49,0-15.87ZM15.26,6.39l-5.55,5.55c-.64.64-1.69.64-2.33,0h0c-.64-.64-.64-1.69,0-2.33l5.55-5.55c.64-.64,1.69-.64,2.33,0h0c.64.64.64,1.69,0,2.33ZM31.19,22.24l-5.55,5.55c-.64.64-1.69.64-2.33,0h0c-.64-.64-.64-1.69,0-2.33l5.55-5.55c.64-.64,1.69-.64,2.33,0h0c.64.64.64,1.69,0,2.33Z"/><path class="cls-4" d="M62.57,27.62h-7.11l-1.49,4.28h-3.32l6.94-18.36h2.86l6.95,18.36h-3.33l-1.5-4.28ZM56.35,25.05h5.32l-2.66-7.62-2.66,7.62Z"/><path class="cls-9" d="M82.7,13.53v12.27c0,1.95-.62,3.5-1.87,4.64-1.25,1.14-2.91,1.71-4.99,1.71s-3.77-.56-5.01-1.68c-1.24-1.12-1.85-2.68-1.85-4.67v-12.26h3.18v12.29c0,1.23.31,2.17.93,2.81.62.65,1.54.97,2.75.97,2.45,0,3.68-1.29,3.68-3.88v-12.18h3.18Z"/><path class="cls-10" d="M100.11,25.92c-.18,1.96-.91,3.49-2.17,4.58-1.26,1.1-2.94,1.65-5.03,1.65-1.46,0-2.75-.35-3.87-1.04-1.11-.69-1.97-1.68-2.58-2.96-.61-1.28-.92-2.76-.95-4.45v-1.72c0-1.73.31-3.26.92-4.58.61-1.32,1.49-2.34,2.64-3.05s2.47-1.07,3.98-1.07c2.03,0,3.66.55,4.89,1.65,1.24,1.1,1.96,2.65,2.16,4.66h-3.18c-.15-1.32-.54-2.27-1.15-2.86s-1.52-.88-2.72-.88c-1.39,0-2.45.51-3.2,1.52-.74,1.01-1.12,2.5-1.14,4.46v1.63c0,1.99.35,3.5,1.07,4.54.71,1.04,1.75,1.57,3.12,1.57,1.25,0,2.19-.28,2.83-.84s1.03-1.5,1.2-2.81h3.18Z"/><path class="cls-6" d="M115.87,16.11h-5.73v15.79h-3.17v-15.79h-5.68v-2.57h14.57v2.57Z"/><path class="cls-8" d="M125.02,24.84h-3.56v7.06h-3.19V13.53h6.46c2.12,0,3.75.48,4.91,1.43,1.15.95,1.73,2.33,1.73,4.13,0,1.23-.3,2.26-.89,3.09-.59.83-1.42,1.47-2.48,1.91l4.13,7.65v.16h-3.42l-3.68-7.06ZM121.47,22.26h3.28c1.08,0,1.92-.27,2.52-.81.61-.54.91-1.28.91-2.23s-.28-1.74-.84-2.28c-.56-.54-1.39-.82-2.5-.83h-3.37v6.16Z"/><path class="cls-5" d="M137.76,31.9h-3.18V13.53h3.18v18.36Z"/><path class="cls-2" d="M152.19,27.62h-7.11l-1.49,4.28h-3.32l6.94-18.36h2.86l6.95,18.36h-3.33l-1.5-4.28ZM145.98,25.05h5.32l-2.66-7.62-2.66,7.62Z"/></g></svg>